<svg xmlns="http://www.w3.org/2000/svg" width="3480" height="1763" fill="none" viewBox="0 0 3480 1763"><rect width="442" height="1080" x="462" y="270" fill="#05FF2D" rx="149"/><rect width="416" height="1080" x="1132" y="270" fill="#05FF2D" rx="149"/><rect width="1086" height="913" x="462" y="437" fill="#05FF2D"/><rect width="1262" height="1108" x="382" y="437" fill="#05FF2D" rx="456.5"/><rect width="222.474" height="139.693" x="797" y="1135.67" fill="#101010" rx="69.847"/><rect width="222.474" height="139.693" x="990.156" y="1135.67" fill="#101010" rx="69.847"/><rect width="339.747" height="339.747" x="835" y="689" fill="#101010" rx="129"/><rect width="123.309" height="244.032" x="943" y="979.689" fill="#101010" rx="61.655"/><path fill="#101010" d="M943.001 954.589H1066.31V1102.4H943.001V954.589Z"/><ellipse cx="693.5" cy="746" fill="#000" rx="70.5" ry="71"/><ellipse cx="1316.5" cy="746" fill="#000" rx="70.5" ry="71"/><path fill="#000" d="M1905.97 909.968C1869.61 909.968 1838.45 907.989 1812.48 904.032V859.883C1842.9 862.851 1868.87 864.335 1890.39 864.335C1903 864.335 1912.77 863.84 1919.7 862.851C1926.87 861.614 1932.19 859.636 1935.65 856.915C1938.87 854.442 1940.85 851.474 1941.59 848.011C1942.58 844.548 1943.07 839.602 1943.07 833.171C1943.07 825.998 1942.58 820.804 1941.59 817.589C1940.6 814.126 1938.62 811.653 1935.65 810.169C1932.68 808.438 1927.74 807.201 1920.81 806.459L1866.27 800.152C1849.95 797.926 1837.34 793.721 1828.43 787.538C1819.53 781.107 1813.35 772.945 1809.88 763.052C1806.67 752.911 1805.06 740.421 1805.06 725.581C1805.06 703.816 1809.02 687.368 1816.93 676.238C1824.85 664.861 1835.48 657.441 1848.84 653.978C1862.19 650.515 1879.38 648.784 1900.41 648.784C1932.81 648.784 1960.51 651.257 1983.51 656.204V699.24C1959.52 696.025 1935.4 694.417 1911.17 694.417C1888.91 694.417 1874.19 696.272 1867.02 699.982C1863.06 701.961 1860.59 704.558 1859.6 707.773C1858.61 710.988 1858.11 715.811 1858.11 722.242C1858.11 729.662 1858.61 734.98 1859.6 738.195C1860.59 741.41 1862.69 743.76 1865.9 745.244C1869.37 746.481 1875.05 747.594 1882.97 748.583L1941.59 755.632C1952.96 756.869 1962.36 759.218 1969.78 762.681C1977.2 765.896 1983.02 771.338 1987.22 779.005C1993.16 789.64 1996.12 806.088 1996.12 828.348C1996.12 851.845 1992.41 869.529 1984.99 881.401C1977.57 893.273 1967.56 901.064 1954.94 904.774C1942.58 908.237 1926.25 909.968 1905.97 909.968ZM2056.71 907V758.6H2020.35V717.79H2056.71V662.882H2106.05V717.79H2149.09V758.6H2106.05V907H2056.71ZM2302.92 883.627H2299.96C2295.26 892.778 2288.21 899.456 2278.81 903.661C2269.41 907.866 2257.41 909.968 2242.82 909.968C2226.25 909.968 2213.64 907.247 2204.98 901.806C2196.32 896.365 2190.51 888.45 2187.54 878.062C2184.58 867.674 2183.09 853.7 2183.09 836.139V717.79H2232.43V817.96C2232.43 833.542 2233.05 844.548 2234.29 850.979C2235.77 857.162 2238.62 861.243 2242.82 863.222C2247.27 864.953 2254.82 865.819 2265.45 865.819C2275.84 865.819 2283.51 864.211 2288.46 860.996C2293.65 857.781 2296.99 852.834 2298.47 846.156C2300.2 839.231 2301.07 829.09 2301.07 815.734V717.79H2350.41V907H2304.41L2302.92 883.627ZM2460.89 909.968C2444.82 909.968 2432.08 907.124 2422.68 901.435C2413.53 895.499 2406.73 885.606 2402.28 871.755C2398.07 857.657 2395.97 837.994 2395.97 812.766C2395.97 787.538 2398.07 767.875 2402.28 753.777C2406.48 739.679 2413.16 729.662 2422.31 723.726C2431.46 717.79 2443.95 714.822 2459.78 714.822C2473.14 714.822 2484.27 716.553 2493.17 720.016C2502.32 723.231 2509.62 729.415 2515.06 738.566H2517.66V631.347H2567V907H2521L2519.51 883.627H2516.54C2511.35 893.52 2503.93 900.446 2494.28 904.403C2484.64 908.113 2473.51 909.968 2460.89 909.968ZM2482.04 866.19C2490.95 866.19 2497.75 865.077 2502.45 862.851C2507.15 860.378 2510.73 856.544 2513.21 851.35C2514.94 847.145 2516.05 841.951 2516.54 835.768C2517.29 829.585 2517.66 821.794 2517.66 812.395C2517.66 802.996 2517.29 795.329 2516.54 789.393C2516.05 783.457 2514.94 778.387 2513.21 774.182C2510.98 768.741 2507.39 764.907 2502.45 762.681C2497.75 760.208 2490.95 758.971 2482.04 758.971C2470.42 758.971 2462.13 760.084 2457.18 762.31C2452.49 764.536 2449.39 769.112 2447.91 776.037C2446.43 782.962 2445.68 795.082 2445.68 812.395C2445.68 829.708 2446.43 841.951 2447.91 849.124C2449.39 856.049 2452.49 860.625 2457.18 862.851C2462.13 865.077 2470.42 866.19 2482.04 866.19ZM2779.95 827.235H2661.97C2661.97 840.591 2662.96 849.99 2664.94 855.431C2666.92 860.872 2671.37 864.582 2678.29 866.561C2685.22 868.292 2697.46 869.158 2715.02 869.158C2729.62 869.158 2748.78 868.169 2772.53 866.19V904.032C2764.61 905.763 2754.23 907.124 2741.36 908.113C2728.5 909.35 2715.89 909.968 2703.52 909.968C2676.07 909.968 2655.91 906.876 2643.05 900.693C2630.19 894.51 2621.9 884.864 2618.19 871.755C2614.48 858.646 2612.63 838.983 2612.63 812.766C2612.63 787.291 2614.48 767.999 2618.19 754.89C2622.15 741.534 2630.19 731.517 2642.31 724.839C2654.67 718.161 2673.72 714.822 2699.44 714.822C2724.67 714.822 2742.97 718.161 2754.35 724.839C2765.73 731.27 2772.78 740.916 2775.5 753.777C2778.46 766.391 2779.95 786.054 2779.95 812.766V827.235ZM2698.7 754.148C2687.57 754.148 2679.53 755.261 2674.58 757.487C2669.64 759.466 2666.3 763.299 2664.57 768.988C2663.08 774.677 2662.22 783.952 2661.97 796.813H2733.2C2733.2 783.952 2732.21 774.553 2730.23 768.617C2728.26 762.681 2724.92 758.847 2720.22 757.116C2715.52 755.137 2708.35 754.148 2698.7 754.148ZM2943.44 806.83C2943.44 791.001 2942.69 779.994 2941.21 773.811C2939.97 767.628 2937.25 763.67 2933.05 761.939C2928.84 759.96 2921.42 758.971 2910.79 758.971C2900.15 758.971 2892.24 760.579 2887.04 763.794C2882.1 767.009 2878.76 772.08 2877.03 779.005C2875.54 785.93 2874.8 795.947 2874.8 809.056V907H2825.46V717.79H2871.83L2873.32 741.163H2876.28C2880.98 732.012 2888.03 725.334 2897.43 721.129C2906.83 716.924 2918.83 714.822 2933.42 714.822C2949.99 714.822 2962.6 717.543 2971.26 722.984C2979.92 728.425 2985.61 736.34 2988.33 746.728C2991.29 757.116 2992.78 771.09 2992.78 788.651V907H2943.44V806.83ZM3063.19 907V758.6H3026.83V717.79H3063.19V662.882H3112.54V717.79H3155.57V758.6H3112.54V907H3063.19ZM2086.44 1260V1155.38H1985.52V1260H1932.84V1004.75H1985.52V1107.89H2086.44V1004.75H2139.49V1260H2086.44ZM2356.05 1180.23H2238.07C2238.07 1193.59 2239.06 1202.99 2241.04 1208.43C2243.02 1213.87 2247.47 1217.58 2254.4 1219.56C2261.32 1221.29 2273.57 1222.16 2291.13 1222.16C2305.72 1222.16 2324.89 1221.17 2348.63 1219.19V1257.03C2340.72 1258.76 2330.33 1260.12 2317.47 1261.11C2304.61 1262.35 2291.99 1262.97 2279.63 1262.97C2252.17 1262.97 2232.01 1259.88 2219.15 1253.69C2206.29 1247.51 2198.01 1237.86 2194.3 1224.75C2190.59 1211.65 2188.73 1191.98 2188.73 1165.77C2188.73 1140.29 2190.59 1121 2194.3 1107.89C2198.25 1094.53 2206.29 1084.52 2218.41 1077.84C2230.78 1071.16 2249.82 1067.82 2275.55 1067.82C2300.77 1067.82 2319.08 1071.16 2330.45 1077.84C2341.83 1084.27 2348.88 1093.92 2351.6 1106.78C2354.57 1119.39 2356.05 1139.05 2356.05 1165.77V1180.23ZM2274.8 1107.15C2263.67 1107.15 2255.64 1108.26 2250.69 1110.49C2245.74 1112.47 2242.4 1116.3 2240.67 1121.99C2239.19 1127.68 2238.32 1136.95 2238.07 1149.81H2309.31C2309.31 1136.95 2308.32 1127.55 2306.34 1121.62C2304.36 1115.68 2301.02 1111.85 2296.32 1110.12C2291.62 1108.14 2284.45 1107.15 2274.8 1107.15ZM2401.56 1260V984.347H2451.27V1260H2401.56ZM2503.73 1070.79H2550.11L2551.59 1094.16H2554.19C2559.38 1084.27 2566.8 1077.47 2576.45 1073.76C2586.34 1069.8 2597.59 1067.82 2610.21 1067.82C2626.28 1067.82 2638.9 1070.79 2648.05 1076.73C2657.45 1082.41 2664.25 1092.31 2668.45 1106.41C2672.66 1120.26 2674.76 1139.8 2674.76 1165.02C2674.76 1190.25 2672.66 1209.91 2668.45 1224.01C2664.25 1238.11 2657.57 1248.13 2648.42 1254.06C2639.52 1260 2627.15 1262.97 2611.32 1262.97C2597.96 1262.97 2586.71 1261.24 2577.56 1257.77C2568.66 1254.31 2561.48 1248.13 2556.04 1239.22H2553.07V1333.83H2503.73V1070.79ZM2589.06 1218.82C2600.69 1218.82 2608.85 1217.71 2613.55 1215.48C2618.25 1213.25 2621.34 1208.68 2622.82 1201.75C2624.55 1194.58 2625.42 1182.46 2625.42 1165.39C2625.42 1148.33 2624.55 1136.21 2622.82 1129.04C2621.34 1121.86 2618.25 1117.16 2613.55 1114.94C2608.85 1112.71 2600.69 1111.6 2589.06 1111.6C2580.4 1111.6 2573.6 1112.71 2568.66 1114.94C2563.96 1117.16 2560.49 1120.75 2558.27 1125.7C2556.29 1129.9 2554.93 1135.1 2554.19 1141.28C2553.44 1147.46 2553.07 1155.5 2553.07 1165.39C2553.07 1175.54 2553.32 1183.7 2553.82 1189.88C2554.56 1195.82 2555.92 1200.76 2557.9 1204.72C2560.12 1209.67 2563.71 1213.25 2568.66 1215.48C2573.6 1217.71 2580.4 1218.82 2589.06 1218.82ZM2881.03 1180.23H2763.05C2763.05 1193.59 2764.04 1202.99 2766.02 1208.43C2768 1213.87 2772.45 1217.58 2779.38 1219.56C2786.3 1221.29 2798.55 1222.16 2816.11 1222.16C2830.7 1222.16 2849.87 1221.17 2873.61 1219.19V1257.03C2865.7 1258.76 2855.31 1260.12 2842.45 1261.11C2829.59 1262.35 2816.97 1262.97 2804.61 1262.97C2777.15 1262.97 2756.99 1259.88 2744.13 1253.69C2731.27 1247.51 2722.99 1237.86 2719.28 1224.75C2715.57 1211.65 2713.71 1191.98 2713.71 1165.77C2713.71 1140.29 2715.57 1121 2719.28 1107.89C2723.23 1094.53 2731.27 1084.52 2743.39 1077.84C2755.76 1071.16 2774.8 1067.82 2800.52 1067.82C2825.75 1067.82 2844.06 1071.16 2855.43 1077.84C2866.81 1084.27 2873.86 1093.92 2876.58 1106.78C2879.55 1119.39 2881.03 1139.05 2881.03 1165.77V1180.23ZM2799.78 1107.15C2788.65 1107.15 2780.61 1108.26 2775.67 1110.49C2770.72 1112.47 2767.38 1116.3 2765.65 1121.99C2764.17 1127.68 2763.3 1136.95 2763.05 1149.81H2834.29C2834.29 1136.95 2833.3 1127.55 2831.32 1121.62C2829.34 1115.68 2826 1111.85 2821.3 1110.12C2816.6 1108.14 2809.43 1107.15 2799.78 1107.15ZM2926.54 1070.79H2972.92L2974.4 1103.44H2977.37C2982.07 1090.08 2989.24 1080.81 2998.89 1075.61C3008.53 1070.42 3021.52 1067.82 3037.84 1067.82V1116.42C3021.52 1116.42 3008.9 1118.65 3000 1123.1C2991.09 1127.31 2984.79 1134.35 2981.08 1144.25C2977.61 1154.14 2975.88 1167.99 2975.88 1185.8V1260H2926.54V1070.79Z"/></svg>