<svg viewBox="0 0 199.99539984400482 23.51966852842158" height="23.51966852842158" width="199.99539984400482" style="width: 199.99539984400482px; height: 23.51966852842158px; position: absolute; top: 50%; left: 50%; transform: translate(-50%, -50%) scale(0.830269096836817); z-index: 0; cursor: pointer;">
	<defs id="SvgjsDefs1038"></defs>
	<g id="SvgjsG1039" featurekey="nameFeature-0" transform="matrix(0.7724029847490451,0,0,0.7724029847490451,-2.9867280995034786,-7.724029847490451)" fill="#000000">
		<path d="M20.273 40 l-9.1406 -12.246 l-2.1875 0 l0 12.246 l-5.0781 0 l0 -27.988 l5.0781 0 l0 11.289 l2.1094 0 l9.082 -11.289 l6.1914 0 l-10.879 13.379 l11.309 14.609 l-6.4844 0 z M30.56636875 40 l0 -30 l4.9219 0 l0 30 l-4.9219 0 z M59.86321875 29.785 l-0.078125 1.2109 l-14.922 0 c0.19531 3.6914 2.6172 5.4883 5.5078 5.4883 c2.1289 0 3.8281 -1.0547 4.6875 -2.9492 l4.4531 0.72266 c-1.3477 3.8672 -4.8242 6.1328 -9.1016 6.1328 c-6.1914 0 -10.332 -3.7891 -10.332 -10.273 c0 -6.5039 4.2578 -10.313 10.176 -10.313 c5.5078 0 9.5703 3.1641 9.6094 9.9805 z M50.27321875 23.32 c-2.7344 0 -4.6875 1.3867 -5.2539 4.4141 l10 0 c-0.27344 -2.9297 -2.168 -4.4141 -4.7461 -4.4141 z M71.50371875 40 c-3.6523 0 -5.8008 -2.1484 -5.8008 -5.918 l0 -10.098 l-3.9258 0 l0 -3.7695 l1.3281 0 c2.0703 0 3.1055 -0.82031 3.1055 -3.5352 l0 -2.9102 l4.4336 0 l0 6.4453 l4.2188 0 l0 3.7695 l-4.2188 0 l0 9.5703 c0 1.8359 0.95703 2.6953 2.4414 2.6953 l1.7773 0 l0 3.75 l-3.3594 0 z M86.13279375 40.39063 c-4.3555 0 -7.6953 -1.8164 -8.3789 -5.5078 l4.1211 -1.1719 c0.54688 2.2266 2.1484 3.2031 4.2578 3.2031 c1.543 0 3.2031 -0.52734 3.1836 -2.3242 c-0.039063 -2.1875 -2.9883 -2.4219 -6.1523 -3.4961 c-2.4805 -0.82031 -4.9023 -2.0313 -4.9023 -5.4297 c0 -4.0039 3.3203 -5.8203 7.5 -5.8203 c3.7695 0 6.9336 1.4844 7.6367 5.2148 l-3.8086 0.87891 c-0.54688 -2.0117 -2.0313 -2.7734 -3.8086 -2.7734 c-1.5625 0 -3.0469 0.60547 -3.0469 2.0898 c0 1.7773 2.3047 2.1484 4.8242 2.8125 c3.0664 0.82031 6.4453 2.0508 6.4453 6.25 c0 4.4336 -3.7305 6.0742 -7.8711 6.0742 z M111.425625 40 l-6.6992 -8.5742 l-1.3281 0 l0 8.5742 l-4.9219 0 l0 -30 l4.9219 0 l0 17.949 l1.1914 0 l6.4258 -7.7344 l5.5664 0 l-7.8516 9.1406 l8.6914 10.645 l-5.9961 0 z M129.55053125 40.39063 c-6.0938 0 -10.566 -3.8672 -10.566 -10.313 c0 -6.3867 4.4336 -10.254 10.566 -10.254 c6.1523 0 10.566 3.8672 10.566 10.254 c0 6.4453 -4.4531 10.313 -10.566 10.313 z M129.49253125 36.4648 c3.3789 0 5.7813 -2.5195 5.7813 -6.3867 c0 -3.8281 -2.4023 -6.3672 -5.7813 -6.3672 c-3.2813 0 -5.6641 2.5391 -5.6641 6.3672 c0 3.8672 2.3828 6.3867 5.6641 6.3867 z M157.3635 20.215 l5.1563 0 l-8.3008 19.785 l-4.2188 0 l-8.2227 -19.785 l5.1367 0 l5.2148 14.238 z M189.023 40.39063 c-7.9688 0 -13.945 -5.4883 -13.945 -14.316 c0 -8.9063 6.0547 -14.434 14.18 -14.434 c5.293 0 9.7461 2.3242 12.188 6.5625 l-4.4727 2.3828 c-1.582 -3.0469 -4.4141 -4.4727 -7.7148 -4.4727 c-5.1563 0 -9.1016 3.5352 -9.1016 9.8438 c0 6.1719 3.75 9.9609 9.2773 9.9609 c4.043 0 7.5195 -2.1289 8.2422 -6.6797 l-8.2422 0 l0 -4.1406 l13.086 0 l0 14.902 l-4.043 0 l0 -4.3359 c-1.8164 2.9688 -5 4.7266 -9.4531 4.7266 z M208.2030875 40 l0 -30 l4.9219 0 l0 30 l-4.9219 0 z M237.4999375 29.785 l-0.078125 1.2109 l-14.922 0 c0.19531 3.6914 2.6172 5.4883 5.5078 5.4883 c2.1289 0 3.8281 -1.0547 4.6875 -2.9492 l4.4531 0.72266 c-1.3477 3.8672 -4.8242 6.1328 -9.1016 6.1328 c-6.1914 0 -10.332 -3.7891 -10.332 -10.273 c0 -6.5039 4.2578 -10.313 10.176 -10.313 c5.5078 0 9.5703 3.1641 9.6094 9.9805 z M227.9099375 23.32 c-2.7344 0 -4.6875 1.3867 -5.2539 4.4141 l10 0 c-0.27344 -2.9297 -2.168 -4.4141 -4.7461 -4.4141 z M253.3594375 19.824 c5.1563 0 9.4336 3.9258 9.4336 10.313 s-4.2578 10.313 -9.4336 10.313 c-2.8516 0 -5.332 -1.25 -6.4648 -3.3984 l-0.13672 2.9492 l-4.6484 0 l0 -30 l4.8633 0 l0.019531 13.047 c1.1719 -2.0313 3.5938 -3.2227 6.3672 -3.2227 z M252.2464375 36.3672 c3.1641 0 5.6641 -2.4023 5.6641 -6.2305 s-2.5 -6.2305 -5.6641 -6.2305 c-3.1445 0 -5.625 2.5391 -5.625 6.2305 s2.4609 6.2305 5.625 6.2305 z"></path></g></svg>