<svg xmlns="http://www.w3.org/2000/svg" xmlns:svg="http://www.w3.org/2000/svg" id="svg17515" width="32" height="32" version="1.1" viewBox="0 0 32 32"><g id="layer1" transform="translate(0,-1020.3622)"><path style="fill:#3b3c3d;fill-rule:evenodd;stroke:none;stroke-width:1px;stroke-linecap:butt;stroke-linejoin:miter;stroke-opacity:1" id="path36518-3" d="m 2.5,1024.2529 c 0.6782,1.8192 1.9048,3.2954 3.5215,4.0781 0.5669,0.269 1.1913,0.393 1.8184,0.4864 -2.0461,-5e-4 -5.3399,0.7265 -5.3399,0.7265 0,0 1.7081,2.2246 2.9277,2.8438 1.0582,0.5372 2.5336,0.7255 3.5215,0.6094 l 0.1914,0 c 0.1016,0.7764 0.2689,1.5428 0.5,2.291 l 2.0528,6.5 c 0.2008,0.6351 0.2562,1.3073 0.1621,1.9668 l -0.1563,1.0937 c -0.1126,0.6851 0.2716,1.355 0.92,1.6035 0.019,0.067 0.055,0.2037 0.1503,0.4395 0.1161,0.2872 0.2386,0.6228 0.5723,0.8887 0.7921,0.6313 1.8184,0.6914 2.6582,0.6914 0.84,0 1.8642,-0.061 2.6563,-0.6914 0.3337,-0.266 0.4561,-0.6015 0.5722,-0.8887 0.096,-0.2389 0.1339,-0.3809 0.1524,-0.4453 0.6355,-0.2598 1.0136,-0.9178 0.9179,-1.5977 l -0.1504,-1.0586 c -0.098,-0.682 -0.036,-1.3774 0.1817,-2.0312 l 1.959,-5.8731 c 0.3107,-0.9378 0.5202,-1.9062 0.625,-2.8886 l 0.1386,0 c 0.9878,0.1161 2.4615,-0.072 3.5196,-0.6094 1.2196,-0.6192 2.9277,-2.8438 2.9277,-2.8438 0,0 -3.6513,-0.7366 -5.3418,-0.7265 0.6274,-0.093 1.2531,-0.2173 1.8203,-0.4864 1.6167,-0.7827 2.8433,-2.2589 3.5215,-4.0781 0,0 -2.3966,0.8448 -3.6289,1.1582 -1.4164,0.3634 -2.8972,0.6036 -4.4141,0.3985 l -1.1484,1.6562 a 0.3750375,0.3750375 0 0 1 -0.5742,0.053 l -0.5703,-0.5703 -0.3086,0.9238 a 0.3750375,0.3750375 0 0 1 -0.6211,0.1465 l -1.1758,-1.1758 -0.7461,1.1192 a 0.3750375,0.3750375 0 0 1 -0.625,0 l -0.7461,-1.1192 -1.1758,1.1758 a 0.3750375,0.3750375 0 0 1 -0.6211,-0.1465 l -0.3086,-0.9238 -0.5703,0.5703 a 0.3750375,0.3750375 0 0 1 -0.5625,-0.037 l -1.2832,-1.6602 c -1.4729,0.1765 -2.9119,-0.057 -4.289,-0.4101 -1.2323,-0.3134 -3.6289,-1.1582 -3.6289,-1.1582 z m 13.5,0 c -1.4074,-0.011 -2.7848,0.4066 -3.9492,1.1973 -0.2652,0.092 -0.5295,0.1676 -0.793,0.2285 l 0.7774,1.0078 0.6992,-0.6992 a 0.3750375,0.3750375 0 0 1 0.6211,0.1465 l 0.3086,0.9238 1.0703,-1.0703 a 0.3750375,0.3750375 0 0 1 0.5781,0.059 l 0.6875,1.0312 0.6875,-1.0312 a 0.3750375,0.3750375 0 0 1 0.5781,-0.059 l 1.0703,1.0703 0.3086,-0.9238 a 0.3750375,0.3750375 0 0 1 0.6211,-0.1465 l 0.6817,0.6816 0.7011,-1.0097 c -0.2584,-0.063 -0.5172,-0.1407 -0.7773,-0.2344 -1.1469,-0.763 -2.4935,-1.1707 -3.8711,-1.1719 z m -4.5,8 c 0,0 1.6701,0 2.25,0.5 0.5375,0.467 0.75,2 0.75,2 0,0 -1.6683,-0.2147 -2.25,-0.75 -0.467,-0.4297 -0.75,-1.75 -0.75,-1.75 z m 9,0 c 0,0 -0.283,1.3203 -0.75,1.75 -0.5817,0.5353 -2.25,0.75 -2.25,0.75 0,0 0.2125,-1.533 0.75,-2 0.5799,-0.5038 2.25,-0.5 2.25,-0.5 z m -6.875,11 a 0.50004997,0.50004997 0 0 1 0.3926,0.1895 c 0.1287,0.1577 0.2084,0.2119 0.3144,0.2519 0.1061,0.04 0.2663,0.063 0.5274,0.059 a 0.500064,0.500064 0 1 1 0.016,1 c -0.3178,0.01 -0.6101,-0.016 -0.8945,-0.123 -0.2845,-0.1072 -0.533,-0.3049 -0.7383,-0.5567 a 0.50004997,0.50004997 0 0 1 0.3828,-0.8203 z m 4.7344,0 a 0.50004997,0.50004997 0 0 1 0.3984,0.8203 c -0.2053,0.2517 -0.4538,0.4495 -0.7383,0.5567 -0.2844,0.1072 -0.5767,0.128 -0.8945,0.123 a 0.500064,0.500064 0 1 1 0.016,-1 c 0.2611,0 0.4194,-0.019 0.5254,-0.059 0.106,-0.04 0.1877,-0.094 0.3164,-0.2519 a 0.50004997,0.50004997 0 0 1 0.377,-0.1895 z m -2.2871,2.7383 c 0.2859,0.01 0.5662,0.081 0.8222,0.209 l 0.031,0.016 c 0.4161,0.2124 0.8716,0.3368 1.3379,0.3652 -0.094,0.1973 -0.2261,0.411 -0.2324,0.416 -0.4657,0.3699 -1.2617,0.4746 -2.0332,0.4746 -0.7722,0 -1.57,-0.1037 -2.0352,-0.4746 -0.01,-0.01 -0.1424,-0.2214 -0.2363,-0.4218 0.4681,-0.028 0.9257,-0.1507 1.3457,-0.3594 l 0.033,-0.016 c 0.2997,-0.1495 0.6321,-0.2214 0.9668,-0.209 z"/></g><metadata/></svg>