<svg xmlns="http://www.w3.org/2000/svg" xmlns:xlink="http://www.w3.org/1999/xlink" id="Layer_1" x="0" y="0" version="1.1" viewBox="0 0 262 85.7" xml:space="preserve" style="enable-background:new 0 0 262 85.7"><style type="text/css">.st0{fill:#333}.st1{fill:#000}</style><g><g><rect width="5.8" height="39.1" x="179.4" y="9.7" class="st0"/><path d="M194.9,41.7c-2.1,0-3.9,1.7-3.9,3.9c0,2.2,1.7,3.9,3.9,3.9s3.9-1.7,3.9-3.9S197,41.7,194.9,41.7z" class="st0"/><path d="M210,35.2c0-4.7,2.8-8.7,8.2-8.7h3.4v-5.4h-3.4c-4.2,0-6.2,1.4-8.2,3.6l-0.1,0v-3.7h-5.7v27.7h5.7 C210,48.8,210,37.1,210,35.2z" class="st0"/><rect width="5.8" height="27.7" x="167.4" y="21.1" class="st0"/><path d="M170.2,16.5c2.1,0,3.9-1.7,3.9-3.9s-1.7-3.9-3.9-3.9s-3.9,1.7-3.9,3.9C166.4,14.7,168.1,16.5,170.2,16.5z" class="st0"/><path d="M155.5,23.9c-2.2-2.2-5.6-3.5-9-3.5c-8.1,0-14.6,6.5-14.6,14.6s6.5,14.6,14.6,14.6c3.4,0,6.9-1.5,9-3.8v3h5.7 V21.1h-5.7V23.9z M146.7,43.7c-5,0-8.7-3.8-8.7-8.8s3.8-8.7,8.7-8.7l0,0c5,0,8.9,3.5,8.9,8.7S151.6,43.7,146.7,43.7z" class="st0"/><path d="M237.6,49.5c2.6,0,5.9-1.4,7.9-3.8c0,1,0,2,0,3h5.7V36.7V21.1h-5.7v15.2c0,3.9-3,7.6-7.5,7.6 c-3.9,0-6.7-2.9-6.7-7V21.1h-5.7v16.3C225.5,44.7,229.5,49.5,237.6,49.5z" class="st0"/><path d="M115.3,20.4c-3.8,0-7.5,1.7-9.7,4.4c-2.1-2.7-5.1-4.4-9.1-4.4c-3.3,0-5.6,1.5-6.9,2.6v-1.9h-5.7v27.7h5.7 V32.6c0-3.6,2.9-6.6,6.6-6.6c3.6,0,6.6,2.9,6.6,6.6v16.2h5.7V32.6c0-3.6,2.9-6.6,6.6-6.6c3.6,0,6.6,2.9,6.6,6.6v16.2h5.7V32.6 C127.2,25.1,122.4,20.4,115.3,20.4z" class="st0"/><path d="M190,61.6L190,61.6L190,61.6l0-2.1h-1.7h-1.7h-0.3v16.3h0.3l0,0h3.3c0,0,0-6.5,0-7.6c0-2.7,1.6-5.1,4.8-5.1h2 v-3.6h-2C192.3,59.5,191.2,60.3,190,61.6z" class="st0"/><path d="M229,68.4L229,68.4c0,2.6-2.1,4.2-4.1,4.2c-2.2,0-3.7-1.6-3.7-3.8v-9.3h-3.6v9.6c0,4.5,2.6,7.1,7.1,7.1 c1.5,0,3.2-0.8,4.3-1.9c0,0.3,0,0.6,0,0.9v0.6h3.6V59.5H229L229,68.4L229,68.4z" class="st0"/><path d="M206.3,59.1c-4.7,0-8.5,3.8-8.5,8.5s3.8,8.5,8.5,8.5c4.7,0,8.6-3.8,8.6-8.5S211,59.1,206.3,59.1z M206.3,72.6 c-2.7,0-4.9-2.2-4.9-4.9s2.2-4.9,4.9-4.9c2.7,0,4.9,2.2,4.9,4.9S209,72.6,206.3,72.6z" class="st0"/><path d="M244.8,59.1L244.8,59.1c-1.9,0-3.7,0.7-4.9,1.8v-1.3h-3.6v21.9l3.6,0v-7.1c1.2,1.2,3.1,1.9,4.9,1.9 c4.7,0,8.6-3.8,8.6-8.5C253.4,62.9,249.5,59.1,244.8,59.1z M244.7,72.5c-2.8,0-4.9-2-4.9-4.8s2.1-4.8,4.9-4.8 c2.8,0,4.8,2.1,4.8,4.8C249.5,70.4,247.4,72.5,244.7,72.5z" class="st0"/><path d="M179.2,60.9c-1.3-1.1-3.1-1.8-4.9-1.8c-4.7,0-8.5,3.8-8.5,8.5s3.8,8.5,8.5,8.5c1.9,0,3.7-0.7,4.9-1.9v0.3 c-0.1,3.3-1.7,5-4.8,5h0c-1.8,0-3.4-0.7-4.8-2.1l-0.1-0.1l-2.6,2.5l0.1,0.1c1.4,1.6,4.1,3.4,7.4,3.4c0.1,0,0.1,0,0.2,0 c3.1-0.1,8.3-1.3,8.4-8.7V59.5h-3.6L179.2,60.9L179.2,60.9z M174.3,72.5c-2.7,0-4.8-2.1-4.8-4.8c0-2.8,2.1-4.8,4.8-4.8 c2.8,0,4.9,2,4.9,4.8C179.2,70.4,177.1,72.5,174.3,72.5z" class="st0"/></g><path d="M45.8,34.4c0,5-4.1,9.1-9.1,9.1c-5,0-9.1-4.1-9.1-9.2c0-5,4.1-9.1,9.1-9.1C41.7,25.3,45.8,29.4,45.8,34.4 M36.7,4C19.9,4,6.3,17.7,6.3,34.4s13.6,30.4,30.4,30.4c6.1,0,12.1-1.8,17.1-5.3l0.1-0.1l-4.1-4.8l-0.1,0c-3.9,2.5-8.4,3.8-13,3.8 c-13.3,0-24.2-10.8-24.2-24.2s10.8-24.2,24.2-24.2s24.2,10.8,24.2,24.2c0,1.7-0.2,3.5-0.6,5.2c-0.8,3.1-3,4.1-4.6,4 c-1.7-0.1-3.6-1.3-3.6-4.2v-5c0-8.5-6.9-15.4-15.4-15.4S21.3,26,21.3,34.4s6.9,15.4,15.4,15.4c4.1,0,8-1.6,10.9-4.5 c1.7,2.6,4.5,4.3,7.6,4.5c0.3,0,0.5,0,0.8,0c2.2,0,4.4-0.7,6.2-2.1c1.8-1.4,3.2-3.4,3.9-5.8c0.1-0.4,0.3-1.3,0.3-1.3l0,0 c0.4-1.9,0.6-3.8,0.6-6.2C67.1,17.7,53.5,4,36.7,4" class="st1"/></g></svg>