<svg xmlns="http://www.w3.org/2000/svg" xmlns:xlink="http://www.w3.org/1999/xlink" width="315" height="65" version="1.1" viewBox="0 0 315 65"><title>rambler_ru</title><desc>Created with Sketch.</desc><g id="Rambler" fill="none" fill-rule="evenodd" stroke="none" stroke-width="1"><g id="fun" fill="#315EFB" transform="translate(-143.000000, -58.000000)"><g id="rambler_ru" transform="translate(143.000000, 58.000000)"><path id="logo" d="M141.30563,42.0470252 C134.893025,42.0470252 132.202899,37.1026555 132.202899,32.2877395 C132.202899,27.4728235 134.978782,23.2691261 141.37937,23.2691261 C147.779412,23.2691261 150.070252,28.7302185 150.070252,32.6274874 C150.070252,36.5247563 147.718782,42.0470252 141.30563,42.0470252 Z M142.171387,15.0108487 C137.471176,15.0108487 134.113025,17.2099244 133.172437,17.8828655 C133.431345,16.7434538 134.445126,7.7237479 147.125042,7.7237479 L154.958361,7.7237479 L157.862059,0.128033613 L147.259412,0.128033613 C133.281681,0.128033613 122.661008,6.3084958 122.661008,28.0474454 C122.661008,39.9823193 127.971891,49.4892521 141.02979,49.4892521 C153.447521,49.4892521 159.53895,40.7836218 159.53895,32.3155966 C159.53895,20.0529916 150.107395,15.0108487 142.171387,15.0108487 Z M15.2258403,23.5056387 L10.3879832,23.5056387 L10.3879832,8.26505042 L15.3662185,8.26505042 C18.902437,8.26505042 24.6098739,10.343958 24.6098739,15.9175714 C24.6098739,21.5387059 18.902437,23.5056387 15.2258403,23.5056387 Z M16.0593697,0.128033613 L0.293865546,0.128033613 L0.293865546,48.6917731 L10.3879832,48.6917731 L10.3879832,31.5694622 L15.8512605,31.5694622 C26.1507563,31.5694622 34.7771849,26.2957227 34.7771849,15.8858908 C34.7771849,5.47605882 26.1507563,0.128033613 16.0593697,0.128033613 Z M183.219706,15.0108487 L196.094622,48.6917731 L185.638361,48.6917731 L178.158992,27.2111849 L178.029538,27.2111849 L170.574748,48.6917731 L160.155084,48.6917731 L173.03,15.0108487 L183.219706,15.0108487 Z M314.70542,0.128033613 L290.005966,64.7292941 L279.940798,64.7292941 L304.635336,0.128033613 L314.70542,0.128033613 Z M108.241933,15.0108487 L116.567395,15.0108487 L116.567395,48.6917731 L106.822311,48.6917731 L106.822311,28.9596303 L97.3765546,40.8185798 L94.735042,40.8185798 L94.514916,40.5525714 L85.215,29.1229496 L85.215,48.6917731 L75.465,48.6917731 L75.465,15.0108487 L83.7959244,15.0108487 L84.010042,15.2610168 L96.1147899,29.2261849 L108.241933,15.0108487 Z M58.357437,34.6501345 C58.357437,39.2569412 55.6804202,42.4310168 50.4946218,42.4310168 C45.4786975,42.4310168 45.0531933,39.6005126 45.0531933,38.5217311 C45.0531933,36.0304286 47.407395,34.3699244 53.0121429,33.8794202 C54.5557563,33.743958 56.1326891,33.6784118 57.6932353,33.6784118 L58.357437,33.6784118 L58.357437,34.6501345 Z M67.4831092,30.9850084 C67.4831092,30.3060588 67.4721849,29.6549664 67.4432353,29.0246303 C66.9669328,18.5350504 62.3431933,14.2133697 52.3643277,14.2133697 C45.607605,14.2133697 41.2143697,16.8592521 39.6685714,17.9374874 L42.3002521,24.8187479 C42.3002521,24.8187479 46.4078151,21.4638739 51.5985294,21.4638739 C58.942437,21.4638739 58.2165126,27.2876555 58.2165126,27.2876555 C55.705,27.3095042 35.719958,26.3126555 35.719958,38.7877395 C35.719958,45.7083277 41.669916,49.4892521 48.3479832,49.4892521 C54.2886555,49.4892521 57.4845798,46.6226975 58.5382353,45.5095042 C58.5436975,45.6613529 58.7463445,48.6912269 58.7463445,48.6912269 L67.8261345,48.6912269 C67.8261345,48.6912269 67.4831092,45.7695042 67.4831092,41.1932857 L67.4831092,30.9850084 Z M256.791513,42.0492101 C250.352143,42.0492101 246.796807,36.7973193 246.796807,31.7835798 C246.796807,26.7703866 250.430798,21.5174034 256.791513,21.5174034 C263.151681,21.5174034 266.636555,26.0848824 266.636555,31.7835798 C266.636555,37.4822773 263.230882,42.0492101 256.791513,42.0492101 Z M258.011765,14.2128235 C251.791429,14.2128235 248.041092,17.4704706 246.937185,18.6322773 L246.937185,15.0103025 L237.536765,15.0103025 L237.536765,64.7047143 L247.280756,64.7047143 L247.280756,45.3904286 C248.384664,46.5205546 252.265,49.4892521 258.011765,49.4892521 C267.025462,49.4892521 275.31542,43.0176555 275.31542,31.7835798 C275.31542,20.0333277 266.190294,14.2128235 258.011765,14.2128235 Z M206.363529,28.0856807 C206.637185,25.8226975 209.038361,21.2710588 214.95937,21.2710588 C221.552773,21.2710588 222.620084,26.2285378 222.777941,28.0856807 L206.363529,28.0856807 Z M214.95937,14.2128235 C204.061218,14.2128235 196.658866,21.8904706 196.658866,31.9195882 C196.658866,41.9481597 204.150798,49.4892521 215.302941,49.4892521 C226.455084,49.4892521 231.209916,41.8826134 231.209916,41.8826134 L224.107437,37.288916 C224.107437,37.288916 221.681681,42.0470252 215.370672,42.0470252 C208.871765,42.0470252 206.256471,36.7175714 206.256471,34.6829076 L232.010126,34.6829076 C232.010126,34.6829076 232.150504,33.211395 232.150504,32.7826134 L232.150504,31.6475714 C232.150504,21.7134958 225.856975,14.2128235 214.95937,14.2128235 Z"/></g></g></g></svg>